<svg width="119" height="26" fill="none" xmlns="http://www.w3.org/2000/svg"><path d="M.605 1.34c1.234.196 2.47.383 3.707.558V11.1c1.326.04 2.654.078 3.982.115V2.422c1.237.154 2.476.297 3.717.428v20.785c-1.24.116-2.479.243-3.717.381v-9.708c-1.33.008-2.657.018-3.982.03v10.18c-1.237.165-2.473.344-3.707.536V1.34ZM19.526 23.349c-1.808.115-3.184-.2-4.132-.997-.948-.799-1.423-2.063-1.423-3.717V3.069c1.241.124 2.484.238 3.728.342v15.313c0 .68.158 1.162.475 1.45.338.285.812.413 1.423.384.612-.025 1.07-.192 1.39-.498.322-.306.51-.79.51-1.449V3.701c1.198.083 2.399.153 3.597.213V18.31c0 1.528-.475 2.714-1.427 3.587-.952.873-2.33 1.34-4.14 1.453ZM27.076 4.015c1.9.082 3.802.143 5.705.181 1.858.039 3.253.428 4.182 1.199.928.77 1.393 1.89 1.393 3.37v9.255c0 1.481-.465 2.605-1.395 3.37-.93.769-2.322 1.159-4.18 1.186a304.63 304.63 0 0 0-5.709.14c.003-6.235.004-12.469.004-18.701Zm5.628 15.936c.612 0 1.077-.143 1.393-.428.34-.283.51-.736.512-1.366V8.628c0-.629-.171-1.085-.51-1.367-.338-.283-.783-.428-1.393-.428l-1.904-.034v13.175l1.902-.023ZM40.194 4.229a238.21 238.21 0 0 0 5.707-.133c1.857-.068 3.248.253 4.177 1 .929.746 1.391 1.895 1.391 3.436v9.63c0 1.544-.464 2.696-1.39 3.456-.928.76-2.32 1.096-4.178 1.044a304.933 304.933 0 0 0-5.71-.1l.003-18.333Zm5.645 15.769c.612.011 1.076-.122 1.393-.4.34-.286.51-.745.51-1.378V8.502c0-.639-.17-1.096-.51-1.371-.317-.276-.781-.403-1.391-.388l-1.902.045v13.184c.633.009 1.267.026 1.9.026ZM53.314 3.715c1.244-.084 2.487-.178 3.73-.28V20.35c2.044.094 4.086.207 6.126.34v2.975c-3.28-.31-6.565-.544-9.856-.72V3.715ZM64.28 2.72c3.382-.385 6.756-.845 10.125-1.38v3.387c-2.14.243-4.276.465-6.407.668v5.79l5.093-.15v3.33c-1.695-.023-3.393-.039-5.093-.049v6.73c2.14.178 4.275.385 6.407.62v3.388a184.19 184.19 0 0 0-10.122-1.284c0-7.017 0-14.034-.002-21.05Z" fill="#fff"/><path d="M103.085.952H87.677A4.708 4.708 0 0 0 82.97 5.66v15.408a4.708 4.708 0 0 0 4.708 4.708h15.408a4.71 4.71 0 0 0 4.707-4.708V5.66a4.71 4.71 0 0 0-4.707-4.708ZM116.131 5.39a1.743 1.743 0 0 0-.606.258l-3.67 2.234a3.851 3.851 0 0 0-1.369 1.444 4.107 4.107 0 0 0-.503 1.975v4.134a4.113 4.113 0 0 0 .505 1.98 3.847 3.847 0 0 0 1.376 1.447l3.698 2.234a2.007 2.007 0 0 0 1.613.227 2.113 2.113 0 0 0 1.288-1.051c.186-.348.283-.736.283-1.13V7.565a2.344 2.344 0 0 0-.214-.972 2.248 2.248 0 0 0-.595-.776 2.072 2.072 0 0 0-1.806-.426Z" fill="#246BFD"/><path d="M91.993 21.4c-1.15 0-2.03-.335-2.64-1.004-.608-.67-.913-1.614-.913-2.834V9.539c0-1.223.305-2.168.914-2.836.61-.667 1.489-1.002 2.639-1.003 1.14 0 2.02.334 2.636 1.003.616.67.92 1.615.914 2.836v8.024c0 1.22-.305 2.165-.914 2.834-.61.669-1.488 1.003-2.636 1.003Zm0-2.181c.806 0 1.21-.5 1.21-1.498V9.384c0-.999-.403-1.498-1.21-1.498-.808 0-1.212.499-1.214 1.498v8.33c0 1.005.405 1.506 1.214 1.505ZM99.977 9.538h-2.446V7.836a5.81 5.81 0 0 0 1.595-.175c.376-.091.718-.288.986-.567.284-.35.501-.75.642-1.177h1.573v15.264h-2.35V9.538Z" fill="#fff"/></svg>